<svg width="847" height="520" xmlns="http://www.w3.org/2000/svg" version="1.1"><g transform="translate(0,10)"><g><path class="link" d="M10,198.2200647249191C144.5,198.2200647249191 144.5,198.2200647249191 279,198.2200647249191" style="stroke-width: 396.44; fill: none; stroke: rgb(191, 105, 105); stroke-opacity: 0.4;"></path><path class="link" d="M289,198.2200647249191C423.5,198.2200647249191 423.5,198.2200647249191 558,198.2200647249191" style="stroke-width: 396.44; fill: none; stroke: rgb(105, 191, 105); stroke-opacity: 0.4;"></path><path class="link" d="M568,198.2200647249191C702.5,198.2200647249191 702.5,198.2200647249191 837,198.2200647249191" style="stroke-width: 396.44; fill: none; stroke: rgb(105, 105, 191); stroke-opacity: 0.4;"></path><path class="link" d="M10,453.2200647249191C144.5,453.2200647249191 144.5,453.2200647249191 279,453.2200647249191" style="stroke-width: 93.5599; fill: none; stroke: rgb(191, 191, 105); stroke-opacity: 0.4;"></path><path class="link" d="M289,453.2200647249191C423.5,453.2200647249191 423.5,453.2200647249191 558,453.2200647249191" style="stroke-width: 93.5599; fill: none; stroke: rgb(105, 191, 191); stroke-opacity: 0.4;"></path><path class="link" d="M568,453.2200647249191C702.5,453.2200647249191 702.5,453.2200647249191 837,453.2200647249191" style="stroke-width: 93.5599; fill: none; stroke: rgb(191, 105, 191); stroke-opacity: 0.4;"></path></g><g><g class="node" transform="translate(558,0)"><rect height="396.4401294498382" width="10"><title>14
1</title></rect><text x="-6" y="198.2200647249191" dy=".35em" text-anchor="end" style="font-size: 11px; font-family: Arial, Helvetica; pointer-events: none;">14</text></g><g class="node" transform="translate(558,406.4401294498382)"><rect height="93.5598705501618" width="10"><title>8
0</title></rect><text x="-6" y="46.7799352750809" dy=".35em" text-anchor="end" style="font-size: 11px; font-family: Arial, Helvetica; pointer-events: none;">8</text></g><g class="node" transform="translate(837,406.4401294498382)"><rect height="93.5598705501618" width="10" style="fill: rgb(102, 102, 102);"><title>3
0</title></rect><text x="-6" y="46.7799352750809" dy=".35em" text-anchor="end" style="font-size: 11px; font-family: Arial, Helvetica; pointer-events: none;">3</text></g><g class="node" transform="translate(837,0)"><rect height="396.4401294498382" width="10" style="fill: rgb(102, 102, 102);"><title>5
1</title></rect><text x="-6" y="198.2200647249191" dy=".35em" text-anchor="end" style="font-size: 11px; font-family: Arial, Helvetica; pointer-events: none;">5</text></g><g class="node" transform="translate(0,0)"><rect height="396.4401294498382" width="10"><title>1
1</title></rect><text x="16" y="198.2200647249191" dy=".35em" text-anchor="start" style="font-size: 11px; font-family: Arial, Helvetica; pointer-events: none;">1</text></g><g class="node" transform="translate(0,406.4401294498382)"><rect height="93.5598705501618" width="10"><title>2
0</title></rect><text x="16" y="46.7799352750809" dy=".35em" text-anchor="start" style="font-size: 11px; font-family: Arial, Helvetica; pointer-events: none;">2</text></g><g class="node" transform="translate(279,406.4401294498382)"><rect height="93.5598705501618" width="10"><title>7
0</title></rect><text x="16" y="46.7799352750809" dy=".35em" text-anchor="start" style="font-size: 11px; font-family: Arial, Helvetica; pointer-events: none;">7</text></g><g class="node" transform="translate(279,0)"><rect height="396.4401294498382" width="10"><title>9
1</title></rect><text x="16" y="198.2200647249191" dy=".35em" text-anchor="start" style="font-size: 11px; font-family: Arial, Helvetica; pointer-events: none;">9</text></g></g></g></svg>