<svg width="847" height="520" xmlns="http://www.w3.org/2000/svg" version="1.1"><g transform="translate(0,10)"><g><path class="link" d="M568,161.3663434903047C702.5,161.3663434903047 702.5,111.2818559556787 837,111.2818559556787" style="stroke-width: 36.9848; fill: none; stroke: rgb(105, 191, 126); stroke-opacity: 0.4;"></path><path class="link" d="M289,74.22922437673135C423.5,74.22922437673135 423.5,79.2292243767313 558,79.2292243767313" style="stroke-width: 28.4584; fill: none; stroke: rgb(105, 191, 126); stroke-opacity: 0.4;"></path><path class="link" d="M289,279.40789473684214C423.5,279.40789473684214 423.5,154.11149584487535 558,154.11149584487535" style="stroke-width: 22.4751; fill: none; stroke: rgb(148, 191, 105); stroke-opacity: 0.4;"></path><path class="link" d="M10,11.237534626038808C144.5,11.237534626038808 144.5,279.40789473684214 279,279.40789473684214" style="stroke-width: 22.4751; fill: none; stroke: rgb(191, 105, 126); stroke-opacity: 0.4;"></path><path class="link" d="M568,104.15373961218836C702.5,104.15373961218836 702.5,355.49861495844874 837,355.49861495844874" style="stroke-width: 21.3906; fill: none; stroke: rgb(105, 191, 105); stroke-opacity: 0.4;"></path><path class="link" d="M10,41.82409972299172C144.5,41.82409972299172 144.5,136.415512465374 279,136.415512465374" style="stroke-width: 18.6981; fill: none; stroke: rgb(191, 105, 169); stroke-opacity: 0.4;"></path><path class="link" d="M289,146.25069252077566C423.5,146.25069252077566 423.5,208.85595567867037 558,208.85595567867037" style="stroke-width: 18.6981; fill: none; stroke: rgb(105, 191, 191); stroke-opacity: 0.4;"></path><path class="link" d="M568,214.91412742382272C702.5,214.91412742382272 702.5,319.28393351800554 837,319.28393351800554" style="stroke-width: 18.6981; fill: none; stroke: rgb(105, 148, 191); stroke-opacity: 0.4;"></path><path class="link" d="M568,370.68905817174516C702.5,370.68905817174516 702.5,239.58102493074793 837,239.58102493074793" style="stroke-width: 16.3421; fill: none; stroke: rgb(191, 169, 105); stroke-opacity: 0.4;"></path><path class="link" d="M10,69.3441828254848C144.5,69.3441828254848 144.5,313.266620498615 279,313.266620498615" style="stroke-width: 16.3421; fill: none; stroke: rgb(191, 191, 105); stroke-opacity: 0.4;"></path><path class="link" d="M289,313.266620498615C423.5,313.266620498615 423.5,370.68905817174516 558,370.68905817174516" style="stroke-width: 16.3421; fill: none; stroke: rgb(191, 105, 105); stroke-opacity: 0.4;"></path><path class="link" d="M10,95.34972299168977C144.5,95.34972299168977 144.5,67.83448753462609 279,67.83448753462609" style="stroke-width: 15.669; fill: none; stroke: rgb(105, 126, 191); stroke-opacity: 0.4;"></path><path class="link" d="M568,85.62396121883656C702.5,85.62396121883656 702.5,165.40927977839337 837,165.40927977839337" style="stroke-width: 15.669; fill: none; stroke: rgb(105, 191, 105); stroke-opacity: 0.4;"></path><path class="link" d="M289,194.75000000000006C423.5,194.75000000000006 423.5,110.75415512465375 558,110.75415512465375" style="stroke-width: 14.9211; fill: none; stroke: rgb(169, 191, 105); stroke-opacity: 0.4;"></path><path class="link" d="M10,120.64473684210529C144.5,120.64473684210529 144.5,194.75000000000006 279,194.75000000000006" style="stroke-width: 14.9211; fill: none; stroke: rgb(105, 191, 148); stroke-opacity: 0.4;"></path><path class="link" d="M10,145.3601108033241C144.5,145.3601108033241 144.5,338.69252077562334 279,338.69252077562334" style="stroke-width: 14.5097; fill: none; stroke: rgb(191, 105, 148); stroke-opacity: 0.4;"></path><path class="link" d="M289,338.69252077562334C423.5,338.69252077562334 423.5,172.60387811634348 558,172.60387811634348" style="stroke-width: 14.5097; fill: none; stroke: rgb(105, 191, 105); stroke-opacity: 0.4;"></path><path class="link" d="M289,251.00900277008313C423.5,251.00900277008313 423.5,287.4743767313019 558,287.4743767313019" style="stroke-width: 14.3227; fill: none; stroke: rgb(191, 126, 105); stroke-opacity: 0.4;"></path><path class="link" d="M568,278.49930747922434C702.5,278.49930747922434 702.5,186.46329639889197 837,186.46329639889197" style="stroke-width: 14.3227; fill: none; stroke: rgb(169, 191, 105); stroke-opacity: 0.4;"></path><path class="link" d="M10,169.7763157894737C144.5,169.7763157894737 144.5,237.65858725761777 279,237.65858725761777" style="stroke-width: 14.3227; fill: none; stroke: rgb(191, 148, 105); stroke-opacity: 0.4;"></path><path class="link" d="M568,248.49238227146813C702.5,248.49238227146813 702.5,224.7347645429363 837,224.7347645429363" style="stroke-width: 13.3504; fill: none; stroke: rgb(105, 191, 191); stroke-opacity: 0.4;"></path><path class="link" d="M10,193.61288088642658C144.5,193.61288088642658 144.5,251.49515235457065 279,251.49515235457065" style="stroke-width: 13.3504; fill: none; stroke: rgb(191, 105, 105); stroke-opacity: 0.4;"></path><path class="link" d="M289,237.17243767313022C423.5,237.17243767313022 423.5,247.10872576177286 558,247.10872576177286" style="stroke-width: 13.3504; fill: none; stroke: rgb(191, 126, 105); stroke-opacity: 0.4;"></path><path class="link" d="M568,71.39473684210526C702.5,71.39473684210526 702.5,86.39473684210529 837,86.39473684210529" style="stroke-width: 12.7895; fill: none; stroke: rgb(105, 191, 105); stroke-opacity: 0.4;"></path><path class="link" d="M10,216.68282548476452C144.5,216.68282548476452 144.5,82.06371191135739 279,82.06371191135739" style="stroke-width: 12.7895; fill: none; stroke: rgb(126, 105, 191); stroke-opacity: 0.4;"></path><path class="link" d="M289,214.4390581717452C423.5,214.4390581717452 423.5,310.69390581717454 558,310.69390581717454" style="stroke-width: 12.1163; fill: none; stroke: rgb(169, 191, 105); stroke-opacity: 0.4;"></path><path class="link" d="M568,310.69390581717454C702.5,310.69390581717454 702.5,293.8767313019391 837,293.8767313019391" style="stroke-width: 12.1163; fill: none; stroke: rgb(191, 191, 105); stroke-opacity: 0.4;"></path><path class="link" d="M10,239.13573407202213C144.5,239.13573407202213 144.5,208.2686980609419 279,208.2686980609419" style="stroke-width: 12.1163; fill: none; stroke: rgb(105, 191, 126); stroke-opacity: 0.4;"></path><path class="link" d="M289,161.32132963988923C423.5,161.32132963988923 423.5,394.58171745152356 558,394.58171745152356" style="stroke-width: 11.4432; fill: none; stroke: rgb(105, 191, 191); stroke-opacity: 0.4;"></path><path class="link" d="M568,394.58171745152356C702.5,394.58171745152356 702.5,253.4736842105263 837,253.4736842105263" style="stroke-width: 11.4432; fill: none; stroke: rgb(105, 191, 148); stroke-opacity: 0.4;"></path><path class="link" d="M10,260.9155124653739C144.5,260.9155124653739 144.5,151.48614958448758 279,151.48614958448758" style="stroke-width: 11.4432; fill: none; stroke: rgb(191, 169, 105); stroke-opacity: 0.4;"></path><path class="link" d="M10,281.7603878116343C144.5,281.7603878116343 144.5,162.33102493074796 279,162.33102493074796" style="stroke-width: 10.2465; fill: none; stroke: rgb(191, 105, 191); stroke-opacity: 0.4;"></path><path class="link" d="M568,415.42659279778394C702.5,415.42659279778394 702.5,142.45152354570638 837,142.45152354570638" style="stroke-width: 10.2465; fill: none; stroke: rgb(191, 126, 105); stroke-opacity: 0.4;"></path><path class="link" d="M289,172.16620498614964C423.5,172.16620498614964 423.5,415.42659279778394 558,415.42659279778394" style="stroke-width: 10.2465; fill: none; stroke: rgb(105, 191, 191); stroke-opacity: 0.4;"></path><path class="link" d="M289,112.07409972299173C423.5,112.07409972299173 423.5,341.0934903047092 558,341.0934903047092" style="stroke-width: 9.98476; fill: none; stroke: rgb(105, 191, 126); stroke-opacity: 0.4;"></path><path class="link" d="M10,301.8760387811634C144.5,301.8760387811634 144.5,93.4508310249308 279,93.4508310249308" style="stroke-width: 9.98476; fill: none; stroke: rgb(105, 105, 191); stroke-opacity: 0.4;"></path><path class="link" d="M568,341.0934903047092C702.5,341.0934903047092 702.5,198.61703601108033 837,198.61703601108033" style="stroke-width: 9.98476; fill: none; stroke: rgb(191, 148, 105); stroke-opacity: 0.4;"></path><path class="link" d="M568,119.76662049861496C702.5,119.76662049861496 702.5,381.1114958448754 837,381.1114958448754" style="stroke-width: 9.83518; fill: none; stroke: rgb(105, 191, 105); stroke-opacity: 0.4;"></path><path class="link" d="M289,131.98407202216072C423.5,131.98407202216072 423.5,98.37603878116343 558,98.37603878116343" style="stroke-width: 9.83518; fill: none; stroke: rgb(105, 191, 191); stroke-opacity: 0.4;"></path><path class="link" d="M10,321.7860110803324C144.5,321.7860110803324 144.5,172.37188365650974 279,172.37188365650974" style="stroke-width: 9.83518; fill: none; stroke: rgb(126, 191, 105); stroke-opacity: 0.4;"></path><path class="link" d="M10,341.5277008310249C144.5,341.5277008310249 144.5,103.26731301939063 279,103.26731301939063" style="stroke-width: 9.6482; fill: none; stroke: rgb(169, 191, 105); stroke-opacity: 0.4;"></path><path class="link" d="M568,200.7409972299169C702.5,200.7409972299169 702.5,274.01939058171746 837,274.01939058171746" style="stroke-width: 9.6482; fill: none; stroke: rgb(105, 148, 191); stroke-opacity: 0.4;"></path><path class="link" d="M289,93.28254847645435C423.5,93.28254847645435 423.5,194.68282548476455 558,194.68282548476455" style="stroke-width: 9.6482; fill: none; stroke: rgb(105, 191, 126); stroke-opacity: 0.4;"></path><path class="link" d="M289,384.60803324099726C423.5,384.60803324099726 423.5,321.42659279778394 558,321.42659279778394" style="stroke-width: 9.34903; fill: none; stroke: rgb(105, 191, 148); stroke-opacity: 0.4;"></path><path class="link" d="M10,361.0263157894737C144.5,361.0263157894737 144.5,384.60803324099726 279,384.60803324099726" style="stroke-width: 9.34903; fill: none; stroke: rgb(148, 191, 105); stroke-opacity: 0.4;"></path><path class="link" d="M568,321.42659279778394C702.5,321.42659279778394 702.5,390.7036011080333 837,390.7036011080333" style="stroke-width: 9.34903; fill: none; stroke: rgb(191, 191, 105); stroke-opacity: 0.4;"></path><path class="link" d="M289,102.59418282548481C423.5,102.59418282548481 423.5,275.8254847645429 558,275.8254847645429" style="stroke-width: 8.97507; fill: none; stroke: rgb(105, 191, 126); stroke-opacity: 0.4;"></path><path class="link" d="M568,290.1481994459834C702.5,290.1481994459834 702.5,283.33102493074796 837,283.33102493074796" style="stroke-width: 8.97507; fill: none; stroke: rgb(169, 191, 105); stroke-opacity: 0.4;"></path><path class="link" d="M10,380.1883656509695C144.5,380.1883656509695 144.5,112.5789473684211 279,112.5789473684211" style="stroke-width: 8.97507; fill: none; stroke: rgb(169, 105, 191); stroke-opacity: 0.4;"></path><path class="link" d="M289,403.37742382271466C423.5,403.37742382271466 423.5,122.30955678670358 558,122.30955678670358" style="stroke-width: 8.18975; fill: none; stroke: rgb(191, 169, 105); stroke-opacity: 0.4;"></path><path class="link" d="M568,128.7790858725762C702.5,128.7790858725762 702.5,409.4729916897507 837,409.4729916897507" style="stroke-width: 8.18975; fill: none; stroke: rgb(105, 191, 105); stroke-opacity: 0.4;"></path><path class="link" d="M10,398.77077562326866C144.5,398.77077562326866 144.5,403.37742382271466 279,403.37742382271466" style="stroke-width: 8.18975; fill: none; stroke: rgb(105, 169, 191); stroke-opacity: 0.4;"></path><path class="link" d="M10,416.64265927977834C144.5,416.64265927977834 144.5,359.72437673130196 279,359.72437673130196" style="stroke-width: 7.55402; fill: none; stroke: rgb(191, 126, 105); stroke-opacity: 0.4;"></path><path class="link" d="M568,238.04016620498615C702.5,238.04016620498615 702.5,133.55124653739614 837,133.55124653739614" style="stroke-width: 7.55402; fill: none; stroke: rgb(105, 191, 191); stroke-opacity: 0.4;"></path><path class="link" d="M289,359.72437673130196C423.5,359.72437673130196 423.5,257.56094182825484 558,257.56094182825484" style="stroke-width: 7.55402; fill: none; stroke: rgb(105, 169, 191); stroke-opacity: 0.4;"></path><path class="link" d="M289,420.7070637119113C423.5,420.7070637119113 423.5,129.63919667590028 558,129.63919667590028" style="stroke-width: 6.46953; fill: none; stroke: rgb(105, 148, 191); stroke-opacity: 0.4;"></path><path class="link" d="M10,433.6544321329639C144.5,433.6544321329639 144.5,420.7070637119113 279,420.7070637119113" style="stroke-width: 6.46953; fill: none; stroke: rgb(105, 191, 169); stroke-opacity: 0.4;"></path><path class="link" d="M568,349.30193905817174C702.5,349.30193905817174 702.5,416.78393351800554 837,416.78393351800554" style="stroke-width: 6.43213; fill: none; stroke: rgb(191, 148, 105); stroke-opacity: 0.4;"></path><path class="link" d="M10,450.1052631578947C144.5,450.1052631578947 144.5,366.7174515235457 279,366.7174515235457" style="stroke-width: 6.43213; fill: none; stroke: rgb(148, 105, 191); stroke-opacity: 0.4;"></path><path class="link" d="M289,366.7174515235457C423.5,366.7174515235457 423.5,349.30193905817174 558,349.30193905817174" style="stroke-width: 6.43213; fill: none; stroke: rgb(105, 169, 191); stroke-opacity: 0.4;"></path><path class="link" d="M568,258.2527700831025C702.5,258.2527700831025 702.5,331.7181440443214 837,331.7181440443214" style="stroke-width: 6.17036; fill: none; stroke: rgb(105, 191, 191); stroke-opacity: 0.4;"></path><path class="link" d="M10,466.4065096952908C144.5,466.4065096952908 144.5,217.4120498614959 279,217.4120498614959" style="stroke-width: 6.17036; fill: none; stroke: rgb(105, 191, 105); stroke-opacity: 0.4;"></path><path class="link" d="M289,205.2957063711912C423.5,205.2957063711912 423.5,237.3483379501385 558,237.3483379501385" style="stroke-width: 6.17036; fill: none; stroke: rgb(169, 191, 105); stroke-opacity: 0.4;"></path><path class="link" d="M568,192.88781163434905C702.5,192.88781163434905 702.5,176.27285318559558 837,176.27285318559558" style="stroke-width: 6.05817; fill: none; stroke: rgb(105, 148, 191); stroke-opacity: 0.4;"></path><path class="link" d="M289,436.9709141274238C423.5,436.9709141274238 423.5,221.2340720221607 558,221.2340720221607" style="stroke-width: 6.05817; fill: none; stroke: rgb(105, 191, 169); stroke-opacity: 0.4;"></path><path class="link" d="M10,482.5207756232686C144.5,482.5207756232686 144.5,436.9709141274238 279,436.9709141274238" style="stroke-width: 6.05817; fill: none; stroke: rgb(105, 148, 191); stroke-opacity: 0.4;"></path><path class="link" d="M568,432.77493074792244C702.5,432.77493074792244 702.5,205.83448753462602 837,205.83448753462602" style="stroke-width: 4.45014; fill: none; stroke: rgb(191, 105, 105); stroke-opacity: 0.4;"></path><path class="link" d="M289,292.8704986149585C423.5,292.8704986149585 423.5,432.77493074792244 558,432.77493074792244" style="stroke-width: 4.45014; fill: none; stroke: rgb(148, 191, 105); stroke-opacity: 0.4;"></path><path class="link" d="M10,497.7749307479224C144.5,497.7749307479224 144.5,292.8704986149585 279,292.8704986149585" style="stroke-width: 4.45014; fill: none; stroke: rgb(105, 191, 191); stroke-opacity: 0.4;"></path></g><g><g class="node" transform="translate(558,430.5498614958449)"><rect height="4.450138504155124" width="10"><title>1
0</title></rect><text x="-6" y="2.225069252077562" dy=".35em" text-anchor="end" style="font-size: 11px; font-family: Arial, Helvetica; pointer-events: none;">1</text></g><g class="node" transform="translate(558,142.87396121883657)"><rect height="36.98476454293628" width="10"><title>10
1</title></rect><text x="-6" y="18.49238227146814" dy=".35em" text-anchor="end" style="font-size: 11px; font-family: Arial, Helvetica; pointer-events: none;">10</text></g><g class="node" transform="translate(558,388.8601108033241)"><rect height="11.44321329639889" width="10"><title>11
0</title></rect><text x="-6" y="5.721606648199445" dy=".35em" text-anchor="end" style="font-size: 11px; font-family: Arial, Helvetica; pointer-events: none;">11</text></g><g class="node" transform="translate(558,234.26315789473685)"><rect height="27.07479224376731" width="10"><title>13
1</title></rect><text x="-6" y="13.537396121883654" dy=".35em" text-anchor="end" style="font-size: 11px; font-family: Arial, Helvetica; pointer-events: none;">13</text></g><g class="node" transform="translate(558,189.85872576177286)"><rect height="34.40443213296398" width="10"><title>15
1</title></rect><text x="-6" y="17.20221606648199" dy=".35em" text-anchor="end" style="font-size: 11px; font-family: Arial, Helvetica; pointer-events: none;">15</text></g><g class="node" transform="translate(558,410.303324099723)"><rect height="10.246537396121884" width="10"><title>2
0</title></rect><text x="-6" y="5.123268698060942" dy=".35em" text-anchor="end" style="font-size: 11px; font-family: Arial, Helvetica; pointer-events: none;">2</text></g><g class="node" transform="translate(558,336.101108033241)"><rect height="16.416897506925206" width="10"><title>3
0</title></rect><text x="-6" y="8.208448753462603" dy=".35em" text-anchor="end" style="font-size: 11px; font-family: Arial, Helvetica; pointer-events: none;">3</text></g><g class="node" transform="translate(558,362.5180055401662)"><rect height="16.342105263157894" width="10"><title>4
0</title></rect><text x="-6" y="8.171052631578947" dy=".35em" text-anchor="end" style="font-size: 11px; font-family: Arial, Helvetica; pointer-events: none;">4</text></g><g class="node" transform="translate(558,304.63573407202216)"><rect height="21.465373961218837" width="10"><title>5
1</title></rect><text x="-6" y="10.732686980609419" dy=".35em" text-anchor="end" style="font-size: 11px; font-family: Arial, Helvetica; pointer-events: none;">5</text></g><g class="node" transform="translate(558,271.33795013850414)"><rect height="23.297783933518" width="10"><title>6
1</title></rect><text x="-6" y="11.648891966759" dy=".35em" text-anchor="end" style="font-size: 11px; font-family: Arial, Helvetica; pointer-events: none;">6</text></g><g class="node" transform="translate(558,65)"><rect height="67.87396121883657" width="10"><title>9
2</title></rect><text x="-6" y="33.936980609418285" dy=".35em" text-anchor="end" style="font-size: 11px; font-family: Arial, Helvetica; pointer-events: none;">9</text></g><g class="node" transform="translate(837,344.803324099723)"><rect height="21.390581717451525" width="10" style="fill: rgb(102, 102, 102);"><title>10
1</title></rect><text x="-6" y="10.695290858725762" dy=".35em" text-anchor="end" style="font-size: 11px; font-family: Arial, Helvetica; pointer-events: none;">10</text></g><g class="node" transform="translate(837,405.3781163434903)"><rect height="14.621883656509693" width="10" style="fill: rgb(102, 102, 102);"><title>12
0</title></rect><text x="-6" y="7.310941828254847" dy=".35em" text-anchor="end" style="font-size: 11px; font-family: Arial, Helvetica; pointer-events: none;">12</text></g><g class="node" transform="translate(837,157.57479224376732)"><rect height="50.48476454293628" width="10" style="fill: rgb(102, 102, 102);"><title>13
1</title></rect><text x="-6" y="25.24238227146814" dy=".35em" text-anchor="end" style="font-size: 11px; font-family: Arial, Helvetica; pointer-events: none;">13</text></g><g class="node" transform="translate(837,376.19390581717454)"><rect height="19.184210526315788" width="10" style="fill: rgb(102, 102, 102);"><title>14
1</title></rect><text x="-6" y="9.592105263157894" dy=".35em" text-anchor="end" style="font-size: 11px; font-family: Arial, Helvetica; pointer-events: none;">14</text></g><g class="node" transform="translate(837,218.0595567867036)"><rect height="41.13573407202216" width="10" style="fill: rgb(102, 102, 102);"><title>15
1</title></rect><text x="-6" y="20.56786703601108" dy=".35em" text-anchor="end" style="font-size: 11px; font-family: Arial, Helvetica; pointer-events: none;">15</text></g><g class="node" transform="translate(837,80.00000000000003)"><rect height="67.5747922437673" width="10" style="fill: rgb(102, 102, 102);"><title>6
2</title></rect><text x="-6" y="33.78739612188365" dy=".35em" text-anchor="end" style="font-size: 11px; font-family: Arial, Helvetica; pointer-events: none;">6</text></g><g class="node" transform="translate(837,309.93490304709144)"><rect height="24.86842105263158" width="10" style="fill: rgb(102, 102, 102);"><title>7
1</title></rect><text x="-6" y="12.43421052631579" dy=".35em" text-anchor="end" style="font-size: 11px; font-family: Arial, Helvetica; pointer-events: none;">7</text></g><g class="node" transform="translate(837,269.1952908587258)"><rect height="30.73961218836565" width="10" style="fill: rgb(102, 102, 102);"><title>9
1</title></rect><text x="-6" y="15.369806094182826" dy=".35em" text-anchor="end" style="font-size: 11px; font-family: Arial, Helvetica; pointer-events: none;">9</text></g><g class="node" transform="translate(0,186.9376731301939)"><rect height="13.350415512465371" width="10"><title>1
0</title></rect><text x="16" y="6.675207756232686" dy=".35em" text-anchor="start" style="font-size: 11px; font-family: Arial, Helvetica; pointer-events: none;">1</text></g><g class="node" transform="translate(0,233.07756232686978)"><rect height="12.116343490304708" width="10"><title>10
0</title></rect><text x="16" y="6.058171745152354" dy=".35em" text-anchor="start" style="font-size: 11px; font-family: Arial, Helvetica; pointer-events: none;">10</text></g><g class="node" transform="translate(0,113.18421052631581)"><rect height="14.921052631578947" width="10"><title>11
0</title></rect><text x="16" y="7.4605263157894735" dy=".35em" text-anchor="start" style="font-size: 11px; font-family: Arial, Helvetica; pointer-events: none;">11</text></g><g class="node" transform="translate(0,430.41966759002764)"><rect height="6.469529085872575" width="10"><title>12
0</title></rect><text x="16" y="3.2347645429362877" dy=".35em" text-anchor="start" style="font-size: 11px; font-family: Arial, Helvetica; pointer-events: none;">12</text></g><g class="node" transform="translate(0,495.5498614958448)"><rect height="4.450138504155124" width="10"><title>13
0</title></rect><text x="16" y="2.225069252077562" dy=".35em" text-anchor="start" style="font-size: 11px; font-family: Arial, Helvetica; pointer-events: none;">13</text></g><g class="node" transform="translate(0,394.6759002770083)"><rect height="8.189750692520775" width="10"><title>14
0</title></rect><text x="16" y="4.0948753462603875" dy=".35em" text-anchor="start" style="font-size: 11px; font-family: Arial, Helvetica; pointer-events: none;">14</text></g><g class="node" transform="translate(0,479.49168975069244)"><rect height="6.058171745152354" width="10"><title>15
0</title></rect><text x="16" y="3.029085872576177" dy=".35em" text-anchor="start" style="font-size: 11px; font-family: Arial, Helvetica; pointer-events: none;">15</text></g><g class="node" transform="translate(0,87.51523545706374)"><rect height="15.668975069252076" width="10"><title>16
0</title></rect><text x="16" y="7.834487534626038" dy=".35em" text-anchor="start" style="font-size: 11px; font-family: Arial, Helvetica; pointer-events: none;">16</text></g><g class="node" transform="translate(0,296.88365650969524)"><rect height="9.984764542936288" width="10"><title>17
0</title></rect><text x="16" y="4.992382271468144" dy=".35em" text-anchor="start" style="font-size: 11px; font-family: Arial, Helvetica; pointer-events: none;">17</text></g><g class="node" transform="translate(0,210.28808864265926)"><rect height="12.789473684210526" width="10"><title>18
0</title></rect><text x="16" y="6.394736842105263" dy=".35em" text-anchor="start" style="font-size: 11px; font-family: Arial, Helvetica; pointer-events: none;">18</text></g><g class="node" transform="translate(0,446.8891966759002)"><rect height="6.432132963988918" width="10"><title>19
0</title></rect><text x="16" y="3.216066481994459" dy=".35em" text-anchor="start" style="font-size: 11px; font-family: Arial, Helvetica; pointer-events: none;">19</text></g><g class="node" transform="translate(0,412.86565096952904)"><rect height="7.554016620498614" width="10"><title>2
0</title></rect><text x="16" y="3.777008310249307" dy=".35em" text-anchor="start" style="font-size: 11px; font-family: Arial, Helvetica; pointer-events: none;">2</text></g><g class="node" transform="translate(0,375.7008310249307)"><rect height="8.97506925207756" width="10"><title>20
0</title></rect><text x="16" y="4.48753462603878" dy=".35em" text-anchor="start" style="font-size: 11px; font-family: Arial, Helvetica; pointer-events: none;">20</text></g><g class="node" transform="translate(0,276.63711911357336)"><rect height="10.246537396121884" width="10"><title>21
0</title></rect><text x="16" y="5.123268698060942" dy=".35em" text-anchor="start" style="font-size: 11px; font-family: Arial, Helvetica; pointer-events: none;">21</text></g><g class="node" transform="translate(0,32.47506925207759)"><rect height="18.698060941828253" width="10"><title>22
1</title></rect><text x="16" y="9.349030470914126" dy=".35em" text-anchor="start" style="font-size: 11px; font-family: Arial, Helvetica; pointer-events: none;">22</text></g><g class="node" transform="translate(0,138.10526315789474)"><rect height="14.509695290858724" width="10"><title>23
0</title></rect><text x="16" y="7.254847645429362" dy=".35em" text-anchor="start" style="font-size: 11px; font-family: Arial, Helvetica; pointer-events: none;">23</text></g><g class="node" transform="translate(0,2.842170943040401e-14)"><rect height="22.47506925207756" width="10"><title>24
1</title></rect><text x="16" y="11.23753462603878" dy=".35em" text-anchor="start" style="font-size: 11px; font-family: Arial, Helvetica; pointer-events: none;">24</text></g><g class="node" transform="translate(0,162.61495844875347)"><rect height="14.322714681440441" width="10"><title>3
0</title></rect><text x="16" y="7.161357340720221" dy=".35em" text-anchor="start" style="font-size: 11px; font-family: Arial, Helvetica; pointer-events: none;">3</text></g><g class="node" transform="translate(0,255.19390581717448)"><rect height="11.44321329639889" width="10"><title>4
0</title></rect><text x="16" y="5.721606648199445" dy=".35em" text-anchor="start" style="font-size: 11px; font-family: Arial, Helvetica; pointer-events: none;">4</text></g><g class="node" transform="translate(0,61.17313019390584)"><rect height="16.342105263157894" width="10"><title>5
0</title></rect><text x="16" y="8.171052631578947" dy=".35em" text-anchor="start" style="font-size: 11px; font-family: Arial, Helvetica; pointer-events: none;">5</text></g><g class="node" transform="translate(0,336.70360110803324)"><rect height="9.648199445983378" width="10"><title>6
0</title></rect><text x="16" y="4.824099722991689" dy=".35em" text-anchor="start" style="font-size: 11px; font-family: Arial, Helvetica; pointer-events: none;">6</text></g><g class="node" transform="translate(0,356.3518005540166)"><rect height="9.349030470914126" width="10"><title>7
0</title></rect><text x="16" y="4.674515235457063" dy=".35em" text-anchor="start" style="font-size: 11px; font-family: Arial, Helvetica; pointer-events: none;">7</text></g><g class="node" transform="translate(0,316.86842105263156)"><rect height="9.835180055401661" width="10"><title>8
0</title></rect><text x="16" y="4.917590027700831" dy=".35em" text-anchor="start" style="font-size: 11px; font-family: Arial, Helvetica; pointer-events: none;">8</text></g><g class="node" transform="translate(0,463.32132963988914)"><rect height="6.1703601108033235" width="10"><title>9
0</title></rect><text x="16" y="3.0851800554016617" dy=".35em" text-anchor="start" style="font-size: 11px; font-family: Arial, Helvetica; pointer-events: none;">9</text></g><g class="node" transform="translate(279,305.09556786703604)"><rect height="16.342105263157894" width="10"><title>1
0</title></rect><text x="16" y="8.171052631578947" dy=".35em" text-anchor="start" style="font-size: 11px; font-family: Arial, Helvetica; pointer-events: none;">1</text></g><g class="node" transform="translate(279,60.00000000000006)"><rect height="57.06648199445983" width="10"><title>10
2</title></rect><text x="16" y="28.533240997229914" dy=".35em" text-anchor="start" style="font-size: 11px; font-family: Arial, Helvetica; pointer-events: none;">10</text></g><g class="node" transform="translate(279,379.9335180055402)"><rect height="9.349030470914126" width="10"><title>11
0</title></rect><text x="16" y="4.674515235457063" dy=".35em" text-anchor="start" style="font-size: 11px; font-family: Arial, Helvetica; pointer-events: none;">11</text></g><g class="node" transform="translate(279,433.9418282548476)"><rect height="6.058171745152354" width="10"><title>12
0</title></rect><text x="16" y="3.029085872576177" dy=".35em" text-anchor="start" style="font-size: 11px; font-family: Arial, Helvetica; pointer-events: none;">12</text></g><g class="node" transform="translate(279,127.06648199445988)"><rect height="50.222991689750685" width="10"><title>13
1</title></rect><text x="16" y="25.111495844875343" dy=".35em" text-anchor="start" style="font-size: 11px; font-family: Arial, Helvetica; pointer-events: none;">13</text></g><g class="node" transform="translate(279,355.94736842105266)"><rect height="13.986149584487533" width="10"><title>14
0</title></rect><text x="16" y="6.993074792243767" dy=".35em" text-anchor="start" style="font-size: 11px; font-family: Arial, Helvetica; pointer-events: none;">14</text></g><g class="node" transform="translate(279,417.47229916897504)"><rect height="6.469529085872575" width="10"><title>15
0</title></rect><text x="16" y="3.2347645429362877" dy=".35em" text-anchor="start" style="font-size: 11px; font-family: Arial, Helvetica; pointer-events: none;">15</text></g><g class="node" transform="translate(279,230.49722991689754)"><rect height="27.673130193905813" width="10"><title>2
1</title></rect><text x="16" y="13.836565096952906" dy=".35em" text-anchor="start" style="font-size: 11px; font-family: Arial, Helvetica; pointer-events: none;">2</text></g><g class="node" transform="translate(279,399.2825484764543)"><rect height="8.189750692520775" width="10"><title>4
0</title></rect><text x="16" y="4.0948753462603875" dy=".35em" text-anchor="start" style="font-size: 11px; font-family: Arial, Helvetica; pointer-events: none;">4</text></g><g class="node" transform="translate(279,187.28947368421058)"><rect height="33.207756232686975" width="10"><title>6
1</title></rect><text x="16" y="16.603878116343488" dy=".35em" text-anchor="start" style="font-size: 11px; font-family: Arial, Helvetica; pointer-events: none;">6</text></g><g class="node" transform="translate(279,268.17036011080336)"><rect height="26.925207756232684" width="10"><title>7
1</title></rect><text x="16" y="13.462603878116342" dy=".35em" text-anchor="start" style="font-size: 11px; font-family: Arial, Helvetica; pointer-events: none;">7</text></g><g class="node" transform="translate(279,331.43767313019396)"><rect height="14.509695290858724" width="10"><title>9
0</title></rect><text x="16" y="7.254847645429362" dy=".35em" text-anchor="start" style="font-size: 11px; font-family: Arial, Helvetica; pointer-events: none;">9</text></g></g></g></svg>